<?xml version="1.0" standalone="no"?>
<!DOCTYPE svg PUBLIC "-//W3C//DTD SVG 20010904//EN"
 "http://www.w3.org/TR/2001/REC-SVG-20010904/DTD/svg10.dtd">
<svg version="1.0" xmlns="http://www.w3.org/2000/svg"
 width="512.000000pt" height="512.000000pt" viewBox="0 0 512.000000 512.000000"
 preserveAspectRatio="xMidYMid meet">
<metadata>
Created by potrace 1.11, written by Peter Selinger 2001-2013
</metadata>
<g transform="translate(0.000000,512.000000) scale(0.100000,-0.100000)"
fill="#000000" stroke="none">
<path d="M2529 4888 c-113 -28 -211 -94 -283 -188 -40 -53 -79 -127 -90 -175
-11 -45 -23 -54 -64 -48 -20 3 -333 54 -696 115 -658 109 -658 109 -695 91
-20 -10 -41 -29 -48 -43 -10 -23 -33 -146 -139 -745 -19 -110 -44 -247 -54
-305 -11 -58 -28 -157 -39 -220 -26 -148 -94 -537 -106 -600 -20 -110 -56
-312 -60 -345 -4 -22 -17 -98 -30 -170 -13 -71 -33 -182 -44 -245 -21 -119
-97 -556 -105 -600 -50 -274 -76 -428 -76 -446 0 -52 45 -99 103 -109 80 -14
499 -85 532 -90 22 -4 63 -10 90 -15 187 -29 310 -51 314 -56 7 -7 8 -15 15
-174 9 -211 13 -235 46 -270 25 -27 41 -33 90 -33 19 0 220 22 246 27 10 2 57
7 104 11 47 4 87 8 90 10 3 2 41 6 85 9 44 4 87 9 95 11 8 2 47 6 85 10 39 3
84 8 100 10 38 6 103 13 180 20 33 3 76 8 95 10 19 3 98 12 175 20 77 9 154
17 170 20 17 2 62 7 100 10 39 4 78 9 87 11 15 4 57 -1 238 -32 14 -2 122 -20
240 -40 118 -19 226 -37 240 -40 14 -2 68 -11 120 -19 52 -9 109 -18 125 -21
150 -28 196 -31 228 -15 35 17 63 66 70 121 2 19 10 69 18 112 l13 76 50 6
c28 3 74 8 101 11 80 8 202 22 265 30 19 2 64 7 100 11 36 3 72 7 80 9 8 2 49
6 90 10 41 3 82 8 90 10 8 2 49 7 90 10 41 4 88 14 105 24 52 29 56 50 50 216
-3 83 -8 166 -10 185 -2 19 -7 94 -10 165 -3 72 -8 159 -10 195 -3 36 -7 117
-10 180 -3 63 -8 142 -10 175 -2 33 -7 116 -10 185 -4 69 -8 148 -10 177 -2
29 -6 105 -9 170 -4 65 -9 150 -11 188 -2 39 -7 120 -10 180 -3 61 -8 142 -10
180 -3 39 -7 120 -10 180 -3 61 -7 144 -10 185 -3 41 -7 118 -10 170 -3 52 -8
133 -10 180 -3 47 -7 128 -10 180 -2 52 -7 133 -10 180 -2 47 -7 132 -10 190
-3 58 -8 137 -10 175 -2 39 -7 120 -10 180 -8 144 -11 157 -46 191 -33 32 -61
34 -214 21 -44 -4 -107 -10 -140 -12 -33 -3 -82 -7 -110 -9 -27 -3 -86 -7
-130 -11 -44 -3 -98 -8 -120 -10 -22 -2 -74 -7 -115 -10 -41 -3 -95 -8 -120
-10 -25 -2 -79 -7 -120 -10 -41 -3 -95 -8 -120 -10 -25 -2 -79 -7 -120 -10
-41 -3 -93 -8 -115 -10 -22 -2 -80 -7 -130 -10 -49 -4 -102 -8 -117 -10 -25
-3 -31 3 -60 58 -48 90 -148 187 -239 230 -128 61 -231 71 -370 35z m271 -224
c31 -14 73 -45 97 -71 24 -25 42 -47 41 -48 -2 -2 -41 -6 -88 -9 -102 -8 -191
-16 -245 -21 -22 -2 -84 -7 -139 -11 l-99 -7 19 33 c86 146 260 203 414 134z"/>
</g>
</svg>
